<svg version="1.1" xmlns="http://www.w3.org/2000/svg">
    <defs>
        <symbol id="quality_icon" viewBox="0 0 255 255">
            <g id="Layer_2" data-name="Layer 2">
                <g id="Layer_1-2" data-name="Layer 1">
                    <g>
                        <path class="cls-2"
                              d="M93.31,168.34a8.37,8.37,0,0,1-.2,1.86,7.59,7.59,0,0,1-.58,1.65,6.87,6.87,0,0,1-.92,1.42,6.5,6.5,0,0,1-1.23,1.14l3.67,4H91.84a2.72,2.72,0,0,1-.87-.13,1.69,1.69,0,0,1-.71-.48l-2.12-2.34a7.7,7.7,0,0,1-1,.21,8.56,8.56,0,0,1-1.12.07,7.83,7.83,0,0,1-3-.56,6.78,6.78,0,0,1-2.32-1.54,6.94,6.94,0,0,1-1.5-2.34,8.44,8.44,0,0,1,0-5.89,6.94,6.94,0,0,1,1.5-2.35A6.78,6.78,0,0,1,83,161.5a7.83,7.83,0,0,1,3-.55,7.74,7.74,0,0,1,3,.56,6.85,6.85,0,0,1,2.31,1.54,6.93,6.93,0,0,1,1.49,2.34A8,8,0,0,1,93.31,168.34Zm-2.76,0a6.73,6.73,0,0,0-.32-2.13,4.52,4.52,0,0,0-.91-1.61,3.89,3.89,0,0,0-1.43-1,5.38,5.38,0,0,0-3.82,0,3.94,3.94,0,0,0-1.44,1,4.52,4.52,0,0,0-.92,1.61,7.27,7.27,0,0,0,0,4.27,4.46,4.46,0,0,0,.92,1.6,4,4,0,0,0,1.44,1,5.38,5.38,0,0,0,3.82,0,3.92,3.92,0,0,0,1.43-1,4.46,4.46,0,0,0,.91-1.6A6.73,6.73,0,0,0,90.55,168.34Z"/>
                        <path class="cls-2"
                              d="M103.45,173.4a3.54,3.54,0,0,0,1.39-.26,2.9,2.9,0,0,0,1-.73,3.2,3.2,0,0,0,.65-1.14,4.72,4.72,0,0,0,.22-1.5v-8.66h2.69v8.66a6.69,6.69,0,0,1-.42,2.38,5.32,5.32,0,0,1-3.08,3.13,7.24,7.24,0,0,1-5,0,5.29,5.29,0,0,1-3.08-3.13,6.69,6.69,0,0,1-.42-2.38v-8.66h2.69v8.65a4.68,4.68,0,0,0,.22,1.5,3.29,3.29,0,0,0,.64,1.15,2.83,2.83,0,0,0,1,.73A3.54,3.54,0,0,0,103.45,173.4Z"/>
                        <path class="cls-2"
                              d="M126.58,175.57H124.5a.91.91,0,0,1-.58-.17,1,1,0,0,1-.32-.44l-1.08-3h-6l-1.08,3a.94.94,0,0,1-.32.42.88.88,0,0,1-.57.19h-2.09l5.68-14.46h2.75Zm-9.36-5.46h4.61l-1.76-4.81q-.12-.32-.27-.75t-.28-.95q-.14.51-.28,1c-.09.29-.18.55-.26.77Z"/>
                        <path class="cls-2" d="M133,173.34h5.79v2.22h-8.48V161.11H133Z"/>
                        <path class="cls-2" d="M145.84,175.57h-2.7V161.11h2.7Z"/>
                        <path class="cls-2" d="M161.48,161.11v2.21h-4.35v12.25h-2.69V163.32h-4.37v-2.21Z"/>
                        <path class="cls-2"
                              d="M171.82,169.95v5.62h-2.69v-5.62l-5.27-8.84h2.37a.84.84,0,0,1,.56.17,1.46,1.46,0,0,1,.34.43l2.65,4.83q.23.43.4.82t.31.75q.13-.38.3-.77t.39-.8l2.63-4.83a1.34,1.34,0,0,1,.33-.41.83.83,0,0,1,.56-.19h2.38Z"/>
                        <path class="cls-2"
                              d="M74.12,199.57H72a.91.91,0,0,1-.58-.17,1,1,0,0,1-.33-.44l-1.08-3h-6L63,199a1,1,0,0,1-.32.42.88.88,0,0,1-.58.19H60l5.68-14.46h2.75Zm-9.36-5.46h4.61l-1.76-4.81q-.12-.32-.27-.75t-.29-.95q-.14.51-.27,1c-.09.29-.18.55-.27.77Z"/>
                        <path class="cls-2"
                              d="M85.56,187.74a.74.74,0,0,1-.25.31.64.64,0,0,1-.34.09.87.87,0,0,1-.45-.15l-.59-.35a4.91,4.91,0,0,0-.79-.34,3.34,3.34,0,0,0-1.08-.16,3.17,3.17,0,0,0-1,.14,2.05,2.05,0,0,0-.7.38,1.5,1.5,0,0,0-.43.57,1.9,1.9,0,0,0-.14.74,1.28,1.28,0,0,0,.29.85,2.36,2.36,0,0,0,.75.58,7,7,0,0,0,1.07.43l1.22.4a11.88,11.88,0,0,1,1.22.5,4.26,4.26,0,0,1,1.07.72,3.25,3.25,0,0,1,.75,1.06,3.69,3.69,0,0,1,.29,1.53,5,5,0,0,1-.33,1.83,4.24,4.24,0,0,1-1,1.49,4.63,4.63,0,0,1-1.58,1,5.8,5.8,0,0,1-2.13.37,6.81,6.81,0,0,1-1.36-.14,7.13,7.13,0,0,1-1.29-.38,6.64,6.64,0,0,1-1.15-.6,5.59,5.59,0,0,1-1-.78l.78-1.29a1,1,0,0,1,.27-.24.65.65,0,0,1,.34-.09,1,1,0,0,1,.54.21l.68.46a5.23,5.23,0,0,0,.93.46,3.59,3.59,0,0,0,1.29.21,2.64,2.64,0,0,0,1.78-.54,2,2,0,0,0,.63-1.57,1.46,1.46,0,0,0-.28-.93,2.31,2.31,0,0,0-.76-.61,5.73,5.73,0,0,0-1.07-.42l-1.22-.37a10.49,10.49,0,0,1-1.22-.48,3.93,3.93,0,0,1-1.07-.73,3.32,3.32,0,0,1-.76-1.12,4.3,4.3,0,0,1-.28-1.67,4,4,0,0,1,1.23-2.87A4.54,4.54,0,0,1,80,185.3a5.4,5.4,0,0,1,2-.35,6.77,6.77,0,0,1,2.36.4,5.35,5.35,0,0,1,1.84,1.12Z"/>
                        <path class="cls-2"
                              d="M98.49,187.74a.74.74,0,0,1-.25.31.64.64,0,0,1-.34.09.87.87,0,0,1-.45-.15l-.59-.35a4.91,4.91,0,0,0-.79-.34,3.34,3.34,0,0,0-1.08-.16,3.17,3.17,0,0,0-1,.14,2.05,2.05,0,0,0-.7.38,1.5,1.5,0,0,0-.43.57,1.9,1.9,0,0,0-.14.74,1.28,1.28,0,0,0,.29.85,2.36,2.36,0,0,0,.75.58,7,7,0,0,0,1.07.43l1.22.4a11.88,11.88,0,0,1,1.22.5,4.26,4.26,0,0,1,1.07.72,3.25,3.25,0,0,1,.75,1.06,3.69,3.69,0,0,1,.29,1.53,5,5,0,0,1-.33,1.83,4.24,4.24,0,0,1-1,1.49,4.63,4.63,0,0,1-1.58,1,5.8,5.8,0,0,1-2.13.37,6.81,6.81,0,0,1-1.36-.14,7.13,7.13,0,0,1-1.29-.38,6.64,6.64,0,0,1-1.15-.6,5.59,5.59,0,0,1-1-.78l.78-1.29a1,1,0,0,1,.27-.24.65.65,0,0,1,.34-.09,1,1,0,0,1,.54.21l.68.46a5.23,5.23,0,0,0,.93.46,3.59,3.59,0,0,0,1.29.21,2.64,2.64,0,0,0,1.78-.54,2,2,0,0,0,.63-1.57,1.46,1.46,0,0,0-.28-.93,2.31,2.31,0,0,0-.76-.61,5.73,5.73,0,0,0-1.07-.42l-1.22-.37a10.49,10.49,0,0,1-1.22-.48,3.93,3.93,0,0,1-1.07-.73,3.32,3.32,0,0,1-.76-1.12,4.3,4.3,0,0,1-.28-1.67,4,4,0,0,1,1.23-2.87,4.54,4.54,0,0,1,1.49-.93,5.4,5.4,0,0,1,2-.35,6.77,6.77,0,0,1,2.36.4,5.35,5.35,0,0,1,1.84,1.12Z"/>
                        <path class="cls-2"
                              d="M109.49,197.4a3.54,3.54,0,0,0,1.39-.26,2.9,2.9,0,0,0,1-.73,3.2,3.2,0,0,0,.65-1.14,4.72,4.72,0,0,0,.22-1.5v-8.66h2.69v8.66a6.69,6.69,0,0,1-.42,2.38,5.32,5.32,0,0,1-3.08,3.13,7.24,7.24,0,0,1-5,0,5.29,5.29,0,0,1-3.08-3.13,6.69,6.69,0,0,1-.42-2.38v-8.66h2.69v8.65a4.68,4.68,0,0,0,.22,1.5,3.29,3.29,0,0,0,.64,1.15,2.83,2.83,0,0,0,1,.73A3.54,3.54,0,0,0,109.49,197.4Z"/>
                        <path class="cls-2"
                              d="M123.21,193.92v5.65h-2.69V185.11h4.41a9.22,9.22,0,0,1,2.54.3,4.81,4.81,0,0,1,1.73.86,3.3,3.3,0,0,1,1,1.31,4.61,4.61,0,0,1,.1,3.07,4,4,0,0,1-.62,1.18,4.19,4.19,0,0,1-1,.93,5.26,5.26,0,0,1-1.36.64,2.66,2.66,0,0,1,.88.83l3.62,5.34h-2.42a1.18,1.18,0,0,1-.59-.14,1.21,1.21,0,0,1-.42-.4l-3-4.63A1.06,1.06,0,0,0,125,194a1.32,1.32,0,0,0-.61-.11Zm0-1.93h1.68a4.16,4.16,0,0,0,1.33-.19,2.56,2.56,0,0,0,.93-.52,2.11,2.11,0,0,0,.54-.79,2.75,2.75,0,0,0,.18-1,2.05,2.05,0,0,0-.73-1.69,3.47,3.47,0,0,0-2.21-.59h-1.72Z"/>
                        <path class="cls-2"
                              d="M148.44,199.57h-2.08a.91.91,0,0,1-.58-.17,1,1,0,0,1-.32-.44l-1.08-3h-6l-1.08,3a.94.94,0,0,1-.32.42.88.88,0,0,1-.57.19h-2.09L140,185.11h2.75Zm-9.36-5.46h4.61l-1.76-4.81q-.12-.32-.27-.75t-.28-.95q-.14.51-.28,1c-.09.29-.18.55-.26.77Z"/>
                        <path class="cls-2"
                              d="M153.84,185.12a.69.69,0,0,1,.21.06.71.71,0,0,1,.19.13,2.17,2.17,0,0,1,.2.22l7.59,9.67c0-.23,0-.46-.06-.68s0-.43,0-.62v-8.79h2.37v14.46h-1.39a1.22,1.22,0,0,1-.53-.1,1.17,1.17,0,0,1-.41-.36l-7.56-9.63c0,.21,0,.42,0,.63s0,.4,0,.58v8.88h-2.37V185.11h1.71Z"/>
                        <path class="cls-2"
                              d="M179.39,196.16a.51.51,0,0,1,.38.17l1.06,1.15a5.83,5.83,0,0,1-2.17,1.67,7.46,7.46,0,0,1-3.08.58,7.28,7.28,0,0,1-2.89-.55,6.37,6.37,0,0,1-2.2-1.53,6.7,6.7,0,0,1-1.39-2.34,8.77,8.77,0,0,1-.49-3,8,8,0,0,1,.54-3,6.74,6.74,0,0,1,3.87-3.86,8.06,8.06,0,0,1,3-.54,7.13,7.13,0,0,1,2.82.51,6.59,6.59,0,0,1,2.06,1.37l-.9,1.25a.8.8,0,0,1-.2.21.59.59,0,0,1-.35.09.78.78,0,0,1-.47-.18,5.73,5.73,0,0,0-.61-.39,4.91,4.91,0,0,0-.93-.39,5.41,5.41,0,0,0-3.31.17,4.18,4.18,0,0,0-1.47,1,4.67,4.67,0,0,0-1,1.6,6.18,6.18,0,0,0-.34,2.13,6.34,6.34,0,0,0,.34,2.17,4.78,4.78,0,0,0,.94,1.6,4,4,0,0,0,1.39,1,4.3,4.3,0,0,0,1.72.34,7.48,7.48,0,0,0,1-.06,4.21,4.21,0,0,0,.82-.19,3.66,3.66,0,0,0,.71-.33,4.45,4.45,0,0,0,.67-.5.94.94,0,0,1,.21-.15A.54.54,0,0,1,179.39,196.16Z"/>
                        <path class="cls-2" d="M194.18,185.11v2.14h-6.41v4h5v2.07h-5v4.09h6.41v2.15h-9.12V185.11Z"/>
                    </g>
                    <g>
                        <path class="cls-3"
                              d="M145.87,57.88h-7.35a11,11,0,1,0-22,0h-7.35v11h36.74ZM127.5,61.55a3.67,3.67,0,1,1,3.67-3.67A3.67,3.67,0,0,1,127.5,61.55Z"/>
                        <path class="cls-3"
                              d="M149.56,57.62h0V72.32H105.46V57.62h0A7.33,7.33,0,0,0,98.11,65v51.47a7.33,7.33,0,0,0,7.33,7.33h44.13a7.33,7.33,0,0,0,7.33-7.33V65A7.33,7.33,0,0,0,149.56,57.62Zm-25.64,48-5.19-5.19h0l-5.37-5.38,5.19-5.19,5.37,5.38L136.45,82.7l5.19,5.19Z"/>
                    </g>
                </g>
            </g>

        </symbol>
        <symbol id="production_icon" viewBox="0 0 255 255">
            <g id="Layer_2" data-name="Layer 2">
                <g id="Layer_1-2" data-name="Layer 1">
                    <g>
                        <path class="cls-2" d="M43.91,170.48v5.09H41.22V161.11h4.71a8.26,8.26,0,0,1,2.51.34,4.85,4.85,0,0,1,1.75,1,3.73,3.73,0,0,1,1,1.46,5.44,5.44,0,0,1,0,3.79,4,4,0,0,1-1,1.5,4.89,4.89,0,0,1-1.75,1,7.79,7.79,0,0,1-2.46.35Zm0-2.1h2a4,4,0,0,0,1.29-.19,2.4,2.4,0,0,0,.91-.53,2.18,2.18,0,0,0,.54-.84,3.21,3.21,0,0,0,.18-1.1,2.91,2.91,0,0,0-.18-1,2.08,2.08,0,0,0-.54-.8,2.41,2.41,0,0,0-.91-.5,4.28,4.28,0,0,0-1.29-.17h-2Z"/>
                        <path class="cls-2" d="M58.61,169.92v5.65H55.92V161.11h4.41a9.18,9.18,0,0,1,2.54.31,4.84,4.84,0,0,1,1.73.85,3.3,3.3,0,0,1,1,1.32,4.61,4.61,0,0,1,.1,3.06,4,4,0,0,1-.62,1.18,4.17,4.17,0,0,1-1,.93,5.24,5.24,0,0,1-1.35.64,2.66,2.66,0,0,1,.88.83l3.62,5.34H64.79a1.18,1.18,0,0,1-.59-.14,1.21,1.21,0,0,1-.42-.4l-3-4.63a1.08,1.08,0,0,0-.37-.37,1.32,1.32,0,0,0-.6-.11Zm0-1.93h1.68a4.16,4.16,0,0,0,1.33-.19,2.56,2.56,0,0,0,.93-.53,2.1,2.1,0,0,0,.55-.79,2.76,2.76,0,0,0,.18-1,2.05,2.05,0,0,0-.73-1.69,3.47,3.47,0,0,0-2.21-.59H58.61Z"/>
                        <path class="cls-2" d="M84.52,168.34a8,8,0,0,1-.53,2.94,7,7,0,0,1-1.49,2.35,6.72,6.72,0,0,1-2.31,1.54,8.35,8.35,0,0,1-6,0,6.79,6.79,0,0,1-2.32-1.54,6.93,6.93,0,0,1-1.49-2.35,8.44,8.44,0,0,1,0-5.89A6.94,6.94,0,0,1,71.89,163a6.79,6.79,0,0,1,2.32-1.54,7.83,7.83,0,0,1,3-.56,7.74,7.74,0,0,1,3,.56,6.82,6.82,0,0,1,2.31,1.54A6.91,6.91,0,0,1,84,165.39,8,8,0,0,1,84.52,168.34Zm-2.76,0a6.71,6.71,0,0,0-.32-2.14,4.51,4.51,0,0,0-.9-1.6,3.88,3.88,0,0,0-1.44-1,5.36,5.36,0,0,0-3.81,0,3.93,3.93,0,0,0-1.45,1,4.53,4.53,0,0,0-.91,1.6,7.28,7.28,0,0,0,0,4.27,4.48,4.48,0,0,0,.91,1.6,3.94,3.94,0,0,0,1.45,1,5.36,5.36,0,0,0,3.81,0,3.89,3.89,0,0,0,1.44-1,4.46,4.46,0,0,0,.9-1.6A6.71,6.71,0,0,0,81.76,168.34Z"/>
                        <path class="cls-2" d="M101.68,168.34a7.82,7.82,0,0,1-.53,2.92,6.55,6.55,0,0,1-3.8,3.78,8.13,8.13,0,0,1-3,.53H88.84V161.11h5.52a8.05,8.05,0,0,1,3,.54,6.76,6.76,0,0,1,2.31,1.49,6.65,6.65,0,0,1,1.49,2.29A7.81,7.81,0,0,1,101.68,168.34Zm-2.75,0a6.65,6.65,0,0,0-.32-2.14,4.54,4.54,0,0,0-.91-1.6,3.93,3.93,0,0,0-1.44-1,4.94,4.94,0,0,0-1.9-.35H91.55v10.18h2.81a4.92,4.92,0,0,0,1.9-.35,3.91,3.91,0,0,0,1.44-1,4.54,4.54,0,0,0,.91-1.6A6.65,6.65,0,0,0,98.93,168.34Z"/>
                        <path class="cls-2" d="M111.81,173.4a3.54,3.54,0,0,0,1.39-.26,2.91,2.91,0,0,0,1-.73,3.19,3.19,0,0,0,.65-1.14,4.71,4.71,0,0,0,.22-1.5v-8.66h2.69v8.66a6.68,6.68,0,0,1-.42,2.38,5.39,5.39,0,0,1-1.2,1.89,5.45,5.45,0,0,1-1.89,1.24,7.24,7.24,0,0,1-5,0,5.29,5.29,0,0,1-3.08-3.13,6.68,6.68,0,0,1-.42-2.38v-8.66h2.69v8.65a4.68,4.68,0,0,0,.22,1.5,3.3,3.3,0,0,0,.64,1.14,2.83,2.83,0,0,0,1,.74A3.55,3.55,0,0,0,111.81,173.4Z"/>
                        <path class="cls-2" d="M132.69,172.15a.51.51,0,0,1,.38.17l1.06,1.15a5.83,5.83,0,0,1-2.17,1.67,7.46,7.46,0,0,1-3.08.58,7.3,7.3,0,0,1-2.89-.55,6.37,6.37,0,0,1-2.2-1.53,6.7,6.7,0,0,1-1.39-2.34,8.76,8.76,0,0,1-.49-3,8,8,0,0,1,.54-3,6.74,6.74,0,0,1,3.87-3.86,8.06,8.06,0,0,1,3-.54,7.12,7.12,0,0,1,2.82.52,6.57,6.57,0,0,1,2.06,1.36l-.9,1.25a.82.82,0,0,1-.2.21.59.59,0,0,1-.35.09.79.79,0,0,1-.47-.18,5.73,5.73,0,0,0-.61-.39,5,5,0,0,0-.93-.39,5.39,5.39,0,0,0-3.31.17,4.18,4.18,0,0,0-1.47,1,4.68,4.68,0,0,0-1,1.61,6.17,6.17,0,0,0-.34,2.13,6.35,6.35,0,0,0,.34,2.17,4.77,4.77,0,0,0,.94,1.6,4,4,0,0,0,1.39,1,4.29,4.29,0,0,0,1.72.34,7.49,7.49,0,0,0,1-.06,4.21,4.21,0,0,0,.82-.19,3.6,3.6,0,0,0,.71-.33,4.45,4.45,0,0,0,.67-.5.94.94,0,0,1,.21-.14A.52.52,0,0,1,132.69,172.15Z"/>
                        <path class="cls-2" d="M148.55,161.11v2.21H144.2v12.25h-2.69V163.32h-4.37v-2.21Z"/>
                        <path class="cls-2" d="M155.49,175.57h-2.7V161.11h2.7Z"/>
                        <path class="cls-2" d="M174.81,168.34a8,8,0,0,1-.53,2.94,7,7,0,0,1-1.49,2.35,6.74,6.74,0,0,1-2.31,1.54,8.35,8.35,0,0,1-6,0,6.78,6.78,0,0,1-2.32-1.54,6.93,6.93,0,0,1-1.5-2.35,8.44,8.44,0,0,1,0-5.89,6.94,6.94,0,0,1,1.5-2.34,6.78,6.78,0,0,1,2.32-1.54,7.83,7.83,0,0,1,3-.56,7.74,7.74,0,0,1,3,.56,6.84,6.84,0,0,1,2.31,1.54,6.91,6.91,0,0,1,1.49,2.34A8,8,0,0,1,174.81,168.34Zm-2.76,0a6.74,6.74,0,0,0-.32-2.14,4.52,4.52,0,0,0-.91-1.6,3.88,3.88,0,0,0-1.43-1,5.37,5.37,0,0,0-3.82,0,3.93,3.93,0,0,0-1.44,1,4.52,4.52,0,0,0-.92,1.6,7.28,7.28,0,0,0,0,4.27,4.46,4.46,0,0,0,.92,1.6,3.94,3.94,0,0,0,1.44,1,5.37,5.37,0,0,0,3.82,0,3.89,3.89,0,0,0,1.43-1,4.46,4.46,0,0,0,.91-1.6A6.73,6.73,0,0,0,172.05,168.34Z"/>
                        <path class="cls-2" d="M180.84,161.12a.69.69,0,0,1,.21.06.74.74,0,0,1,.19.13,2.09,2.09,0,0,1,.2.23l7.59,9.67c0-.23,0-.46-.06-.69s0-.43,0-.62v-8.79h2.37v14.46h-1.39a1.23,1.23,0,0,1-.53-.1,1.16,1.16,0,0,1-.41-.36l-7.56-9.63c0,.21,0,.42,0,.63s0,.4,0,.58v8.88h-2.37V161.11h1.41Z"/>
                        <path class="cls-2" d="M207.68,160.94a4.33,4.33,0,0,1,1.58.27,3.77,3.77,0,0,1,1.19.72,3.41,3.41,0,0,1,.78,1,3.29,3.29,0,0,1,.33,1.2l-1.57.33h-.13a.52.52,0,0,1-.3-.09.64.64,0,0,1-.21-.3,2.62,2.62,0,0,0-.23-.49,1.65,1.65,0,0,0-.34-.41,1.56,1.56,0,0,0-.47-.28,1.69,1.69,0,0,0-.62-.11,1.84,1.84,0,0,0-.75.15,1.69,1.69,0,0,0-.56.39,1.68,1.68,0,0,0-.35.57,2,2,0,0,0-.12.68,2.52,2.52,0,0,0,.07.58,2.48,2.48,0,0,0,.21.56,3.61,3.61,0,0,0,.37.58,7.15,7.15,0,0,0,.55.63l3.84,4a7.05,7.05,0,0,0,.53-1.33,7.44,7.44,0,0,0,.26-1.42.6.6,0,0,1,.15-.37.46.46,0,0,1,.36-.14h1.55a8.73,8.73,0,0,1-.38,2.52,8.14,8.14,0,0,1-1.06,2.21l3,3.14H213l-.33,0a1.08,1.08,0,0,1-.28-.08,1.14,1.14,0,0,1-.25-.15,1.86,1.86,0,0,1-.25-.23l-1-1a7.57,7.57,0,0,1-2.13,1.22,7.21,7.21,0,0,1-2.54.44,4.84,4.84,0,0,1-1.64-.29,4.48,4.48,0,0,1-1.43-.83,4.15,4.15,0,0,1-1-1.3,3.78,3.78,0,0,1-.39-1.72,3.68,3.68,0,0,1,.22-1.28,4.33,4.33,0,0,1,.61-1.12,5,5,0,0,1,.92-.94,6.09,6.09,0,0,1,1.18-.72,5.83,5.83,0,0,1-.78-1.46,4.38,4.38,0,0,1-.25-1.42,3.74,3.74,0,0,1,.28-1.42,3.34,3.34,0,0,1,.8-1.17,3.86,3.86,0,0,1,1.29-.8A4.73,4.73,0,0,1,207.68,160.94Zm-3.48,10.44a2.47,2.47,0,0,0,.19,1,2.18,2.18,0,0,0,.52.75,2.34,2.34,0,0,0,.76.47,2.6,2.6,0,0,0,.92.17,4.49,4.49,0,0,0,1.61-.28,4.74,4.74,0,0,0,1.33-.76l-3.8-3.9a3.45,3.45,0,0,0-1.17,1.17A2.82,2.82,0,0,0,204.2,171.39Z"/>
                        <path class="cls-2" d="M64.93,194.48v5.09H62.24V185.11h4.71a8.26,8.26,0,0,1,2.51.34,4.85,4.85,0,0,1,1.75,1,3.73,3.73,0,0,1,1,1.46,5.44,5.44,0,0,1,0,3.79,4,4,0,0,1-1,1.5,4.89,4.89,0,0,1-1.75,1,7.79,7.79,0,0,1-2.46.35Zm0-2.1h2a4,4,0,0,0,1.29-.19,2.4,2.4,0,0,0,.91-.53,2.18,2.18,0,0,0,.54-.84,3.21,3.21,0,0,0,.18-1.1,2.91,2.91,0,0,0-.18-1,2.08,2.08,0,0,0-.54-.8,2.41,2.41,0,0,0-.91-.5,4.28,4.28,0,0,0-1.29-.17h-2Z"/>
                        <path class="cls-2" d="M88,199.57H85.93a.91.91,0,0,1-.58-.17A1,1,0,0,1,85,199L84,196H78l-1.08,3a1,1,0,0,1-.32.42.89.89,0,0,1-.57.19H73.9l5.68-14.46h2.75Zm-9.36-5.46h4.61L81.5,189.3c-.08-.21-.17-.46-.27-.75s-.19-.61-.28-.95q-.14.51-.28,1c-.09.29-.18.55-.26.77Z"/>
                        <path class="cls-2" d="M101.13,196.15a.51.51,0,0,1,.38.17l1.06,1.15a5.83,5.83,0,0,1-2.17,1.67,7.46,7.46,0,0,1-3.08.58,7.3,7.3,0,0,1-2.89-.55,6.37,6.37,0,0,1-2.2-1.53,6.7,6.7,0,0,1-1.39-2.34,8.76,8.76,0,0,1-.49-3,8,8,0,0,1,.54-3,6.74,6.74,0,0,1,3.87-3.86,8.06,8.06,0,0,1,3-.54,7.12,7.12,0,0,1,2.82.52,6.57,6.57,0,0,1,2.06,1.36l-.9,1.25a.82.82,0,0,1-.2.21.59.59,0,0,1-.35.09.79.79,0,0,1-.47-.18,5.73,5.73,0,0,0-.61-.39,5,5,0,0,0-.93-.39,5.39,5.39,0,0,0-3.31.17,4.18,4.18,0,0,0-1.47,1,4.68,4.68,0,0,0-1,1.61,6.17,6.17,0,0,0-.34,2.13,6.35,6.35,0,0,0,.34,2.17,4.77,4.77,0,0,0,.94,1.6,4,4,0,0,0,1.39,1,4.29,4.29,0,0,0,1.72.34,7.49,7.49,0,0,0,1-.06,4.21,4.21,0,0,0,.82-.19,3.6,3.6,0,0,0,.71-.33,4.45,4.45,0,0,0,.67-.5.94.94,0,0,1,.21-.14A.52.52,0,0,1,101.13,196.15Z"/>
                        <path class="cls-2" d="M109.58,191.17h.63a1.63,1.63,0,0,0,.63-.11,1.07,1.07,0,0,0,.43-.33l4-5a1.45,1.45,0,0,1,.53-.45,1.69,1.69,0,0,1,.69-.12h2.32l-4.87,6a4.4,4.4,0,0,1-.44.47,2,2,0,0,1-.45.31,2,2,0,0,1,.59.34,3.15,3.15,0,0,1,.51.56l5,6.77h-2.38a1.48,1.48,0,0,1-.71-.13,1.12,1.12,0,0,1-.4-.39l-4.09-5.34a1.22,1.22,0,0,0-.45-.37,1.76,1.76,0,0,0-.71-.11h-.85v6.36h-2.69V185.1h2.69Z"/>
                        <path class="cls-2" d="M135.67,199.57h-2.08a.91.91,0,0,1-.58-.17,1,1,0,0,1-.32-.43l-1.08-3h-6l-1.08,3a1,1,0,0,1-.32.42.89.89,0,0,1-.57.19h-2.09l5.68-14.46H130Zm-9.36-5.46h4.61l-1.76-4.81c-.08-.21-.17-.46-.27-.75s-.19-.61-.28-.95q-.14.51-.28,1c-.09.29-.18.55-.26.77Z"/>
                        <path class="cls-2" d="M145.49,197.59a6.75,6.75,0,0,0,1.58-.17,6.69,6.69,0,0,0,1.29-.46v-2.63h-1.81a.56.56,0,0,1-.41-.15.48.48,0,0,1-.15-.35v-1.52h4.81v5.85a8,8,0,0,1-1.15.69,7.27,7.27,0,0,1-1.27.49,9.71,9.71,0,0,1-1.45.29,13.56,13.56,0,0,1-1.66.09,7.54,7.54,0,0,1-2.91-.55,6.83,6.83,0,0,1-3.82-3.87,7.91,7.91,0,0,1-.54-3,8.16,8.16,0,0,1,.53-3,6.59,6.59,0,0,1,3.87-3.86,8.57,8.57,0,0,1,3.12-.54,8.14,8.14,0,0,1,3.07.53,7.06,7.06,0,0,1,2.2,1.37l-.78,1.22a.69.69,0,0,1-.61.37.91.91,0,0,1-.49-.16l-.65-.38a4.47,4.47,0,0,0-.74-.33,6,6,0,0,0-.91-.23,6.74,6.74,0,0,0-1.17-.09,5,5,0,0,0-1.93.36,4.09,4.09,0,0,0-1.48,1,4.64,4.64,0,0,0-.94,1.61,6.32,6.32,0,0,0-.33,2.1,6.56,6.56,0,0,0,.35,2.22,4.67,4.67,0,0,0,1,1.65,4.22,4.22,0,0,0,1.5,1A5,5,0,0,0,145.49,197.59Z"/>
                        <path class="cls-2" d="M158.54,199.57h-2.7V185.11h2.7Z"/>
                        <path class="cls-2" d="M165.7,185.12a.69.69,0,0,1,.21.06.74.74,0,0,1,.19.13,2.09,2.09,0,0,1,.2.23l7.59,9.67c0-.23,0-.46-.06-.69s0-.43,0-.62v-8.79h2.37v14.46H174.8a1.23,1.23,0,0,1-.53-.1,1.16,1.16,0,0,1-.41-.36l-7.56-9.63c0,.21,0,.42,0,.63s0,.4,0,.58v8.88H164V185.11h1.41Z"/>
                        <path class="cls-2" d="M187.95,197.59a6.75,6.75,0,0,0,1.58-.17,6.69,6.69,0,0,0,1.29-.46v-2.63H189a.56.56,0,0,1-.41-.15.48.48,0,0,1-.15-.35v-1.52h4.81v5.85a8,8,0,0,1-1.15.69,7.27,7.27,0,0,1-1.27.49,9.71,9.71,0,0,1-1.45.29,13.56,13.56,0,0,1-1.66.09,7.54,7.54,0,0,1-2.91-.55,6.83,6.83,0,0,1-3.82-3.87,7.91,7.91,0,0,1-.54-3,8.16,8.16,0,0,1,.53-3,6.59,6.59,0,0,1,3.87-3.86,8.57,8.57,0,0,1,3.12-.54,8.14,8.14,0,0,1,3.07.53,7.06,7.06,0,0,1,2.2,1.37l-.78,1.22a.69.69,0,0,1-.61.37.91.91,0,0,1-.49-.16l-.65-.38a4.47,4.47,0,0,0-.74-.33,6,6,0,0,0-.91-.23,6.74,6.74,0,0,0-1.17-.09,5,5,0,0,0-1.93.36,4.09,4.09,0,0,0-1.48,1,4.64,4.64,0,0,0-.94,1.61,6.32,6.32,0,0,0-.33,2.1,6.56,6.56,0,0,0,.35,2.22,4.67,4.67,0,0,0,1,1.65,4.22,4.22,0,0,0,1.5,1A5,5,0,0,0,187.95,197.59Z"/>
                    </g>
                    <g>
                        <path class="cls-2" d="M150.32,89.24l-2.85-2.85L156,77.83l2.85,2.85a4,4,0,1,0,5.7-5.7L141.76,52.16a4,4,0,1,0-5.7,5.7l2.85,2.85-8.56,8.56-2.85-2.85a4,4,0,0,0-5.7,5.7L124.65,75,96.13,103.5a4,4,0,0,0,0,5.7L99,112.06l-8.56,8.56a4,4,0,0,0,5.7,5.7l8.56-8.56,2.85,2.85a4,4,0,0,0,5.7,0l28.52-28.52,2.85,2.85a4,4,0,0,0,5.7-5.7Zm-8.56-20,5.7,5.7-5.7,5.7-5.7-5.7Z"/>
                    </g>
                </g>
            </g>
        </symbol>
    </defs>
</svg>
